<svg id="Layer_1" data-name="Layer 1" xmlns="http://www.w3.org/2000/svg" viewBox="0 0 798.58 798.58"><title>horseshoe</title><path d="M158.12,161.92V85.55c30.91,0,61.28-1.22,91.49.42,20.68,1.12,40.67,30.53,42.09,56.7,1.24,22.87-7.62,42.72-17.79,62.18-16.28,31.15-35,61.23-48.79,93.44-19.07,44.55-29.5,91.19-23.64,140.69,9.54,80.62,68.9,149.21,148.36,166.44,87.13,18.89,158.86-8.2,215.43-76.55C599,488.06,610.39,441,605.82,388.81c-5.21-59.46-31.44-110.27-62.45-159.56-15.12-24-30.32-48.28-42.28-73.92-9.22-19.78-4.71-40.45,11.54-56.2,5.74-5.56,14.26-11.22,21.71-11.51,32.49-1.25,65.06-.54,98.86-.54v74.76c-9.65,0-17.65-.18-25.64,0-12.52.34-16.26,6.22-9.71,17,6.7,11,14.87,21.18,22.33,31.76,27.78,39.4,56.46,78.73,69.6,125.78,26.94,96.46,14.65,186.25-50.39,265.69-31.14,38-67.16,69.82-112.47,90.28-33.59,15.17-69.12,22-105.45,24.49C360.3,721,301.64,711.39,248.6,678.84,198.67,648.2,155.92,610.06,128.45,557c-19.28-37.22-23.14-77.45-24.8-118.44-2.59-63.91,16.24-122.07,45.93-177.36,14-26.07,29.36-51.41,44.38-76.92,8.33-14.13,5.09-21.17-11.28-22.27C175,161.5,167.19,161.92,158.12,161.92ZM400.93,683.26A266.11,266.11,0,0,0,520.69,655a130.54,130.54,0,0,0,26.4-17.8c6.16-5.33,8.55-13.44,3-21s-12.78-5.52-19.84-1.87c-2.29,1.19-4.76,2-7.12,3.1-56.24,25.4-114.9,33.87-175.42,21.49-25.13-5.14-49.29-15.07-73.86-22.9-6.28-2-13.86-6.32-18,.83-3.09,5.28-3.76,13.37-2.33,19.46,1.13,4.8,6.32,10,11,12.4C306.32,669.8,350.69,681.45,400.93,683.26ZM199.35,588.71c6.07-2.48,16-12.87,18-16.33,2.31-3.84.22-12.05-2.47-16.85-8.33-14.83-18-28.92-27-43.37-6-9.68-13.07-11.69-22.91-6.26-11.28,6.22-15,13.74-9.5,23.25,6.2,10.72,12.72,21.25,19.39,31.67,5.61,8.76,10.33,18.6,17.79,25.77a10.74,10.74,0,0,0,3.41,2.5A4.54,4.54,0,0,0,199.35,588.71Zm448.17-65.13c.23-8.59-6.71-17.17-15.68-19.53-7.32-1.92-13.39-1-17.91,6.56-9.66,16.17-20.17,31.83-30.1,47.85C578.48,567.07,581,575,590.67,582c8.8,6.29,16.51,5.51,22.84-3.51,10.76-15.33,20.71-31.21,31.32-46.64A15.06,15.06,0,0,0,647.52,523.58Zm22.29-100.8c.16-8.79-.08-17.62-.78-26.63-.88-11.25-9.52-13.11-18.5-12.69-8.42.4-16.33,2.31-16.79,13.42-.79,19.18-2,38.34-2.73,57.51-.42,10.85,3.54,14.76,15.11,15.87,13.23,1.27,20.06-2.71,21.29-13.29C668.75,445.44,669.61,434.15,669.81,422.78Zm-535.94,5.85a266.42,266.42,0,0,0,1.38,29.25c1,9.5,9,14.86,20.19,13.84S172,465.22,171.53,455q-1.33-28.22-2.77-56.44c-.49-9.56-6-14.92-16.81-14.74-8.45.14-16.3,2.36-16.93,13.31C134.41,407.73,133.91,418.19,133.88,428.64Zm527.77-92.56a15.76,15.76,0,0,0-.2-2.48c-1.64-10.44-8-21.87-12.88-31.13-5.07-9.55-11-19.15-16-28.43-4.31-8-13.05-6-19.77-2.31s-12.36,8.32-8.47,17.73C612,307.89,619.46,326.4,626.54,345c3.59,9.45,10.57,9.34,18.09,7.24C652.94,350,661.63,345.21,661.65,336.08ZM171.34,353.63c4.42-1.28,8.19-4.54,10.16-10.07,6.56-18.38,11.62-37.29,17.43-56,3.15-10.11-3.34-14.48-10.76-17.56-7.76-3.23-15.57-3.38-19.45,6.15-7,17.06-14.1,34.08-20.21,51.45-2.56,7.29-2.25,15.44,3.85,20.84C157.95,353.43,165.26,355.4,171.34,353.63Z"/></svg>