  0
SECTION
  2
HEADER
  9
$ACADVER
  1
AC1024
  9
$ACADMAINTVER
 70
     6
  9
$DWGCODEPAGE
  3
UNDEFINED
  9
$INSBASE
 10
0.0
 20
0.0
 30
0.0
  9
$EXTMIN
 10
1.000000000000000E+20
 20
1.000000000000000E+20
 30
1.000000000000000E+20
  9
$EXTMAX
 10
-1.000000000000000E+20
 20
-1.000000000000000E+20
 30
-1.000000000000000E+20
  9
$LIMMIN
 10
0.0
 20
0.0
  9
$LIMMAX
 10
12.0
 20
9.0
  9
$ORTHOMODE
 70
     0
  9
$REGENMODE
 70
     1
  9
$FILLMODE
 70
     1
  9
$QTEXTMODE
 70
     0
  9
$MIRRTEXT
 70
     1
  9
$LTSCALE
 40
1.0
  9
$ATTMODE
 70
     1
  9
$TEXTSIZE
 40
0.2
  9
$TRACEWID
 40
0.05
  9
$TEXTSTYLE
  7
Standard
  9
$CLAYER
  8
0
  9
$CELTYPE
  6
ByLayer
  9
$CECOLOR
 62
   256
  9
$CELTSCALE
 40
1.0
  9
$DISPSILH
 70
     0
  9
$DIMSCALE
 40
1.0
  9
$DIMASZ
 40
0.18
  9
$DIMEXO
 40
0.0625
  9
$DIMDLI
 40
0.38
  9
$DIMRND
 40
0.0
  9
$DIMDLE
 40
0.0
  9
$DIMEXE
 40
0.18
  9
$DIMTP
 40
0.0
  9
$DIMTM
 40
0.0
  9
$DIMTXT
 40
0.18
  9
$DIMCEN
 40
0.09
  9
$DIMTSZ
 40
0.0
  9
$DIMTOL
 70
     0
  9
$DIMLIM
 70
     0
  9
$DIMTIH
 70
     1
  9
$DIMTOH
 70
     1
  9
$DIMSE1
 70
     0
  9
$DIMSE2
 70
     0
  9
$DIMTAD
 70
     0
  9
$DIMZIN
 70
     0
  9
$DIMBLK
  1

  9
$DIMASO
 70
     1
  9
$DIMSHO
 70
     1
  9
$DIMPOST
  1

  9
$DIMAPOST
  1

  9
$DIMALT
 70
     0
  9
$DIMALTD
 70
     2
  9
$DIMALTF
 40
25.4
  9
$DIMLFAC
 40
1.0
  9
$DIMTOFL
 70
     0
  9
$DIMTVP
 40
0.0
  9
$DIMTIX
 70
     0
  9
$DIMSOXD
 70
     0
  9
$DIMSAH
 70
     0
  9
$DIMBLK1
  1

  9
$DIMBLK2
  1

  9
$DIMSTYLE
  2
Standard
  9
$DIMCLRD
 70
     0
  9
$DIMCLRE
 70
     0
  9
$DIMCLRT
 70
     0
  9
$DIMTFAC
 40
1.0
  9
$DIMGAP
 40
0.09
  9
$DIMJUST
 70
     0
  9
$DIMSD1
 70
     0
  9
$DIMSD2
 70
     0
  9
$DIMTOLJ
 70
     1
  9
$DIMTZIN
 70
     0
  9
$DIMALTZ
 70
     0
  9
$DIMALTTZ
 70
     0
  9
$DIMUPT
 70
     0
  9
$DIMDEC
 70
     4
  9
$DIMTDEC
 70
     4
  9
$DIMALTU
 70
     2
  9
$DIMALTTD
 70
     2
  9
$DIMTXSTY
  7
Standard
  9
$DIMAUNIT
 70
     0
  9
$DIMADEC
 70
     0
  9
$DIMALTRND
 40
0.0
  9
$DIMAZIN
 70
     0
  9
$DIMDSEP
 70
    46
  9
$DIMATFIT
 70
     3
  9
$DIMFRAC
 70
     0
  9
$DIMLDRBLK
  1

  9
$DIMLUNIT
 70
     2
  9
$DIMLWD
 70
    -2
  9
$DIMLWE
 70
    -2
  9
$DIMTMOVE
 70
     0
  9
$DIMFXL
 40
1.0
  9
$DIMFXLON
 70
     0
  9
$DIMJOGANG
 40
0.7853981633974483
  9
$DIMTFILL
 70
     0
  9
$DIMTFILLCLR
 70
     0
  9
$DIMARCSYM
 70
     0
  9
$DIMLTYPE
  6

  9
$DIMLTEX1
  6

  9
$DIMLTEX2
  6

  9
$DIMTXTDIRECTION
 70
     0
  9
$LUNITS
 70
     2
  9
$LUPREC
 70
     4
  9
$SKETCHINC
 40
0.1
  9
$FILLETRAD
 40
0.5
  9
$AUNITS
 70
     0
  9
$AUPREC
 70
     0
  9
$MENU
  1
.
  9
$ELEVATION
 40
0.0
  9
$PELEVATION
 40
0.0
  9
$THICKNESS
 40
0.0
  9
$LIMCHECK
 70
     0
  9
$CHAMFERA
 40
0.5
  9
$CHAMFERB
 40
0.5
  9
$CHAMFERC
 40
1.0
  9
$CHAMFERD
 40
0.0
  9
$SKPOLY
 70
     0
  9
$TDCREATE
 40
2458204.591886562
  9
$TDUCREATE
 40
2458204.841886574
  9
$TDUPDATE
 40
2458204.591886562
  9
$TDUUPDATE
 40
2458204.841886574
  9
$TDINDWG
 40
0.0000000116
  9
$TDUSRTIMER
 40
0.0000000116
  9
$USRTIMER
 70
     1
  9
$ANGBASE
 50
0.0
  9
$ANGDIR
 70
     0
  9
$PDMODE
 70
     0
  9
$PDSIZE
 40
0.0
  9
$PLINEWID
 40
0.0
  9
$SPLFRAME
 70
     0
  9
$SPLINETYPE
 70
     6
  9
$SPLINESEGS
 70
     8
  9
$HANDSEED
  5
50
  9
$SURFTAB1
 70
     6
  9
$SURFTAB2
 70
     6
  9
$SURFTYPE
 70
     6
  9
$SURFU
 70
     6
  9
$SURFV
 70
     6
  9
$UCSBASE
  2

  9
$UCSNAME
  2

  9
$UCSORG
 10
0.0
 20
0.0
 30
0.0
  9
$UCSXDIR
 10
1.0
 20
0.0
 30
0.0
  9
$UCSYDIR
 10
0.0
 20
1.0
 30
0.0
  9
$UCSORTHOREF
  2

  9
$UCSORTHOVIEW
 70
     0
  9
$UCSORGTOP
 10
0.0
 20
0.0
 30
0.0
  9
$UCSORGBOTTOM
 10
0.0
 20
0.0
 30
0.0
  9
$UCSORGLEFT
 10
0.0
 20
0.0
 30
0.0
  9
$UCSORGRIGHT
 10
0.0
 20
0.0
 30
0.0
  9
$UCSORGFRONT
 10
0.0
 20
0.0
 30
0.0
  9
$UCSORGBACK
 10
0.0
 20
0.0
 30
0.0
  9
$PUCSBASE
  2

  9
$PUCSNAME
  2

  9
$PUCSORG
 10
0.0
 20
0.0
 30
0.0
  9
$PUCSXDIR
 10
1.0
 20
0.0
 30
0.0
  9
$PUCSYDIR
 10
0.0
 20
1.0
 30
0.0
  9
$PUCSORTHOREF
  2

  9
$PUCSORTHOVIEW
 70
     0
  9
$PUCSORGTOP
 10
0.0
 20
0.0
 30
0.0
  9
$PUCSORGBOTTOM
 10
0.0
 20
0.0
 30
0.0
  9
$PUCSORGLEFT
 10
0.0
 20
0.0
 30
0.0
  9
$PUCSORGRIGHT
 10
0.0
 20
0.0
 30
0.0
  9
$PUCSORGFRONT
 10
0.0
 20
0.0
 30
0.0
  9
$PUCSORGBACK
 10
0.0
 20
0.0
 30
0.0
  9
$USERI1
 70
     0
  9
$USERI2
 70
     0
  9
$USERI3
 70
     0
  9
$USERI4
 70
     0
  9
$USERI5
 70
     0
  9
$USERR1
 40
0.0
  9
$USERR2
 40
0.0
  9
$USERR3
 40
0.0
  9
$USERR4
 40
0.0
  9
$USERR5
 40
0.0
  9
$WORLDVIEW
 70
     1
  9
$SHADEDGE
 70
     3
  9
$SHADEDIF
 70
    70
  9
$TILEMODE
 70
     1
  9
$MAXACTVP
 70
    64
  9
$PINSBASE
 10
0.0
 20
0.0
 30
0.0
  9
$PLIMCHECK
 70
     0
  9
$PEXTMIN
 10
1.000000000000000E+20
 20
1.000000000000000E+20
 30
1.000000000000000E+20
  9
$PEXTMAX
 10
-1.000000000000000E+20
 20
-1.000000000000000E+20
 30
-1.000000000000000E+20
  9
$PLIMMIN
 10
0.0
 20
0.0
  9
$PLIMMAX
 10
12.0
 20
9.0
  9
$UNITMODE
 70
     0
  9
$VISRETAIN
 70
     1
  9
$PLINEGEN
 70
     0
  9
$PSLTSCALE
 70
     1
  9
$TREEDEPTH
 70
  3020
  9
$CMLSTYLE
  2
Standard
  9
$CMLJUST
 70
     0
  9
$CMLSCALE
 40
1.0
  9
$PROXYGRAPHICS
 70
     1
  9
$MEASUREMENT
 70
     0
  9
$CELWEIGHT
370
    -1
  9
$ENDCAPS
280
     0
  9
$JOINSTYLE
280
     0
  9
$LWDISPLAY
290
     1
  9
$INSUNITS
 70
     1
  9
$HYPERLINKBASE
  1

  9
$STYLESHEET
  1

  9
$XEDIT
290
     1
  9
$CEPSNTYPE
380
     0
  9
$PSTYLEMODE
290
     1
  9
$FINGERPRINTGUID
  2
{110ACCA6-BC36-7A0B-82FF-62A919C7D052}
  9
$VERSIONGUID
  2
{FAEB1C32-E019-11D5-929B-00C0DF256EC4}
  9
$EXTNAMES
290
     1
  9
$PSVPSCALE
 40
0.0
  9
$OLESTARTUP
290
     0
  9
$SORTENTS
280
   127
  9
$INDEXCTL
280
     0
  9
$HIDETEXT
280
     1
  9
$XCLIPFRAME
280
     2
  9
$HALOGAP
280
     0
  9
$OBSCOLOR
 70
   257
  9
$OBSLTYPE
280
     0
  9
$INTERSECTIONDISPLAY
280
     0
  9
$INTERSECTIONCOLOR
 70
   257
  9
$DIMASSOC
280
     2
  9
$PROJECTNAME
  1

  9
$CAMERADISPLAY
290
     0
  9
$LENSLENGTH
 40
50.0
  9
$CAMERAHEIGHT
 40
0.0
  9
$STEPSPERSEC
 40
2.0
  9
$STEPSIZE
 40
6.0
  9
$3DDWFPREC
 40
2.0
  9
$PSOLWIDTH
 40
0.25
  9
$PSOLHEIGHT
 40
4.0
  9
$LOFTANG1
 40
1.570796326794897
  9
$LOFTANG2
 40
1.570796326794897
  9
$LOFTMAG1
 40
0.0
  9
$LOFTMAG2
 40
0.0
  9
$LOFTPARAM
 70
     7
  9
$LOFTNORMALS
280
     1
  9
$LATITUDE
 40
37.795
  9
$LONGITUDE
 40
-122.394
  9
$NORTHDIRECTION
 40
0.0
  9
$TIMEZONE
 70
 -8000
  9
$LIGHTGLYPHDISPLAY
280
     1
  9
$TILEMODELIGHTSYNCH
280
     1
  9
$CMATERIAL
347
3C
  9
$SOLIDHIST
280
     1
  9
$SHOWHIST
280
     1
  9
$DWFFRAME
280
     2
  9
$DGNFRAME
280
     2
  9
$REALWORLDSCALE
290
     1
  9
$INTERFERECOLOR
 62
   256
  9
$CSHADOW
280
     0
  9
$SHADOWPLANELOCATION
 40
0.0
  0
ENDSEC
  0
SECTION
  2
CLASSES
  0
CLASS
  1
ACDBDICTIONARYWDFLT
  2
AcDbDictionaryWithDefault
  3
ObjectDBX Classes
 90
        0
 91
        4
280
     0
281
     0
  0
CLASS
  1
VISUALSTYLE
  2
AcDbVisualStyle
  3
ObjectDBX Classes
 90
     4095
 91
        4
280
     0
281
     0
  0
CLASS
  1
MATERIAL
  2
AcDbMaterial
  3
ObjectDBX Classes
 90
     1153
 91
        4
280
     0
281
     0
  0
CLASS
  1
SUN
  2
AcDbSun
  3
SCENEOE
 90
     1024
 91
        4
280
     0
281
     0
  0
ENDSEC
  0
SECTION
  2
TABLES
  0
TABLE
  2
VPORT
  5
8
330
0
100
AcDbSymbolTable
 70
     1
  0
VPORT
  5
29
330
8
100
AcDbSymbolTableRecord
100
AcDbViewportTableRecord
  2
*Active
 70
     0
 10
0.0
 20
0.0
 11
1.0
 21
1.0
 12
0.0
 22
0.0
 13
0.0
 23
0.0
 14
0.5
 24
0.5
 15
0.5
 25
0.5
 16
0.0
 26
0.0
 36
1.0
 17
399.287760611971
 27
-399.287760611971
 37
0.0
 40
798.5755212239419
 41
1.0
 42
50.0
 43
0.0
 44
0.0
 50
0.0
 51
0.0
 71
     0
 72
   100
 73
     1
 74
     3
 75
     0
 76
     0
 77
     0
 78
     0
281
     0
 65
     1
110
0.0
120
0.0
130
0.0
111
1.0
121
0.0
131
0.0
112
0.0
122
1.0
132
0.0
 79
     0
146
0.0
 60
     3
 61
     5
292
     1
282
     1
141
0.0
142
0.0
 63
   250
361
3F
  0
ENDTAB
  0
TABLE
  2
LTYPE
  5
5
330
0
100
AcDbSymbolTable
 70
     1
  0
LTYPE
  5
14
330
5
100
AcDbSymbolTableRecord
100
AcDbLinetypeTableRecord
  2
ByBlock
 70
     0
  3

 72
    65
 73
     0
 40
0.0
  0
LTYPE
  5
15
330
5
100
AcDbSymbolTableRecord
100
AcDbLinetypeTableRecord
  2
ByLayer
 70
     0
  3

 72
    65
 73
     0
 40
0.0
  0
LTYPE
  5
16
330
5
100
AcDbSymbolTableRecord
100
AcDbLinetypeTableRecord
  2
Continuous
 70
     0
  3
Solid line
 72
    65
 73
     0
 40
0.0
  0
ENDTAB
  0
TABLE
  2
LAYER
  5
2
330
0
100
AcDbSymbolTable
 70
     2
  0
LAYER
  5
10
330
2
100
AcDbSymbolTableRecord
100
AcDbLayerTableRecord
  2
0
 70
     0
 62
     7
  6
Continuous
370
    -3
390
F
347
3E
  0
LAYER
  5
40
330
2
100
AcDbSymbolTableRecord
100
AcDbLayerTableRecord
  2
Layer 1
 70
     0
 62
     7
  6
Continuous
370
    -3
390
F
347
3E
  0
ENDTAB
  0
TABLE
  2
STYLE
  5
3
330
0
100
AcDbSymbolTable
 70
     1
  0
STYLE
  5
11
330
3
100
AcDbSymbolTableRecord
100
AcDbTextStyleTableRecord
  2
Standard
 70
     0
 40
0.0
 41
1.0
 50
0.0
 71
     0
 42
0.2
  3
txt
  4

  0
ENDTAB
  0
TABLE
  2
VIEW
  5
6
330
0
100
AcDbSymbolTable
 70
     0
  0
ENDTAB
  0
TABLE
  2
UCS
  5
7
330
0
100
AcDbSymbolTable
 70
     0
  0
ENDTAB
  0
TABLE
  2
APPID
  5
9
330
0
100
AcDbSymbolTable
 70
     1
  0
APPID
  5
12
330
9
100
AcDbSymbolTableRecord
100
AcDbRegAppTableRecord
  2
ACAD
 70
     0
  0
ENDTAB
  0
TABLE
  2
DIMSTYLE
  5
A
330
0
100
AcDbSymbolTable
 70
     1
100
AcDbDimStyleTable
  0
DIMSTYLE
105
27
330
A
100
AcDbSymbolTableRecord
100
AcDbDimStyleTableRecord
  2
Standard
 70
     0
178
     0
340
11
  0
ENDTAB
  0
TABLE
  2
BLOCK_RECORD
  5
1
330
0
100
AcDbSymbolTable
 70
     2
  0
BLOCK_RECORD
  5
1F
330
1
100
AcDbSymbolTableRecord
100
AcDbBlockTableRecord
  2
*Model_Space
340
22
 70
     0
280
     1
281
     0
  0
BLOCK_RECORD
  5
1B
330
1
100
AcDbSymbolTableRecord
100
AcDbBlockTableRecord
  2
*Paper_Space
340
1E
 70
     0
280
     1
281
     0
  0
BLOCK_RECORD
  5
23
330
1
100
AcDbSymbolTableRecord
100
AcDbBlockTableRecord
  2
*Paper_Space0
340
26
 70
     0
280
     1
281
     0
  0
BLOCK_RECORD
  5
41
330
1
100
AcDbSymbolTableRecord
100
AcDbBlockTableRecord
  2
block 2
340
0
102
{BLKREFS
331
42
102
}
 70
     0
280
     1
281
     0
  0
ENDTAB
  0
ENDSEC
  0
SECTION
  2
BLOCKS
  0
BLOCK
  5
20
330
1F
100
AcDbEntity
  8
0
100
AcDbBlockBegin
  2
*Model_Space
 70
     0
 10
0.0
 20
0.0
 30
0.0
  3
*Model_Space
  1

  0
ENDBLK
  5
21
330
1F
100
AcDbEntity
  8
0
100
AcDbBlockEnd
  0
BLOCK
  5
1C
330
1B
100
AcDbEntity
 67
     1
  8
0
100
AcDbBlockBegin
  2
*Paper_Space
 70
     0
 10
0.0
 20
0.0
 30
0.0
  3
*Paper_Space
  1

  0
ENDBLK
  5
1D
330
1B
100
AcDbEntity
 67
     1
  8
0
100
AcDbBlockEnd
  0
BLOCK
  5
24
330
23
100
AcDbEntity
  8
0
100
AcDbBlockBegin
  2
*Paper_Space0
 70
     0
 10
0.0
 20
0.0
 30
0.0
  3
*Paper_Space0
  1

  0
ENDBLK
  5
25
330
23
100
AcDbEntity
  8
0
100
AcDbBlockEnd
  0
BLOCK
  5
43
330
41
100
AcDbEntity
  8
0
100
AcDbBlockBegin
  2
block 2
 70
     0
 10
0.0
 20
0.0
 30
0.0
  3
block 2
  1

  0
SPLINE
  5
45
330
41
100
AcDbEntity
  8
Layer 1
370
     0
100
AcDbSpline
210
0.0
220
0.0
230
1.0
 70
    11
 71
     3
 72
    95
 73
    91
 74
     0
 42
0.0000000001
 43
0.0000000001
 12
1.0
 22
0.0
 32
0.0
 13
1.0
 23
0.0
 33
0.0
 40
0.0
 40
0.0
 40
0.0
 40
0.0
 40
1.0
 40
1.0
 40
1.0
 40
2.0
 40
2.0
 40
2.0
 40
3.0
 40
3.0
 40
3.0
 40
4.0
 40
4.0
 40
4.0
 40
5.0
 40
5.0
 40
5.0
 40
6.0
 40
6.0
 40
6.0
 40
7.0
 40
7.0
 40
7.0
 40
8.0
 40
8.0
 40
8.0
 40
9.0
 40
9.0
 40
9.0
 40
10.0
 40
10.0
 40
10.0
 40
11.0
 40
11.0
 40
11.0
 40
12.0
 40
12.0
 40
12.0
 40
13.0
 40
13.0
 40
13.0
 40
14.0
 40
14.0
 40
14.0
 40
15.0
 40
15.0
 40
15.0
 40
16.0
 40
16.0
 40
16.0
 40
17.0
 40
17.0
 40
17.0
 40
18.0
 40
18.0
 40
18.0
 40
19.0
 40
19.0
 40
19.0
 40
20.0
 40
20.0
 40
20.0
 40
21.0
 40
21.0
 40
21.0
 40
22.0
 40
22.0
 40
22.0
 40
23.0
 40
23.0
 40
23.0
 40
24.0
 40
24.0
 40
24.0
 40
25.0
 40
25.0
 40
25.0
 40
26.0
 40
26.0
 40
26.0
 40
27.0
 40
27.0
 40
27.0
 40
28.0
 40
28.0
 40
28.0
 40
29.0
 40
29.0
 40
29.0
 40
30.0
 40
30.0
 40
30.0
 40
30.0
 10
158.1189775823295
 20
-161.9243498062542
 30
0.0
 10
158.1189775823295
 20
-136.522499965009
 30
0.0
 10
158.1189775823295
 20
-111.5151968948339
 30
0.0
 10
158.1189775823295
 20
-85.54767340340277
 30
0.0
 10
189.0242797397541
 20
-85.54767340340277
 30
0.0
 10
219.3952093564549
 20
-84.32788720562348
 30
0.0
 10
249.6106393055688
 20
-85.96983942461702
 30
0.0
 10
270.2901851962424
 20
-87.09359806278826
 30
0.0
 10
290.2767181571144
 20
-116.4988895136612
 30
0.0
 10
291.6962563638772
 20
-142.67313614252
 30
0.0
 10
292.9363999544057
 20
-165.5390146595009
 30
0.0
 10
284.0740648409519
 20
-185.3946474416607
 30
0.0
 10
273.908517054042
 20
-204.8540230328044
 30
0.0
 10
257.6331964227575
 20
-236.0089955719468
 30
0.0
 10
238.908384657906
 20
-266.0868025006675
 30
0.0
 10
225.1232062824174
 20
-298.2911495092467
 30
0.0
 10
206.0526520119474
 20
-342.842928990337
 30
0.0
 10
195.6243956049084
 20
-389.4771596122873
 30
0.0
 10
201.4813488576356
 20
-438.9776126675733
 30
0.0
 10
211.0200765422924
 20
-519.5948063441683
 30
0.0
 10
270.3811982120096
 20
-588.1829348462725
 30
0.0
 10
349.838633791388
 20
-605.4130348110357
 30
0.0
 10
436.9667977733952
 20
-624.3065287853005
 30
0.0
 10
508.697039870789
 20
-597.2174154512177
 30
0.0
 10
565.2663572296515
 20
-528.8633980267932
 30
0.0
 10
599.0316937502284
 20
-488.0639318846506
 30
0.0
 10
610.3930245587071
 20
-440.9524643878149
 30
0.0
 10
605.8241745625346
 20
-388.8100024599571
 30
0.0
 10
600.6142099370991
 20
-329.3508987681344
 30
0.0
 10
574.3878273314804
 20
-278.5377090136781
 30
0.0
 10
543.3766149522926
 20
-229.2481256970359
 30
0.0
 10
528.2600338058492
 20
-205.2215723316986
 30
0.0
 10
513.057583636135
 20
-180.9700329578873
 30
0.0
 10
501.0987687618199
 20
-155.3258043018432
 30
0.0
 10
491.8740113650965
 20
-135.5444156292169
 30
0.0
 10
496.387856292984
 20
-114.873319977044
 30
0.0
 10
512.63889999598
 20
-99.13060841380775
 30
0.0
 10
518.3758946645958
 20
-93.57304443728026
 30
0.0
 10
526.8957722973428
 20
-87.90570375617881
 30
0.0
 10
534.3500795238797
 20
-87.61903440202332
 30
0.0
 10
566.8409282399934
 20
-86.36953018818258
 30
0.0
 10
599.4072221793995
 20
-87.08208774294144
 30
0.0
 10
633.2053919722202
 20
-87.08208774294144
 30
0.0
 10
633.2053919722202
 20
-98.66868255619738
 30
0.0
 10
633.2053919722202
 20
-111.1414849910643
 30
0.0
 10
633.2053919722202
 20
-123.6142874259331
 30
0.0
 10
633.2053919722202
 20
-135.7793288641442
 30
0.0
 10
633.2053919722202
 20
-147.9443703023508
 30
0.0
 10
633.2053919722202
 20
-161.8437860557733
 30
0.0
 10
623.5568918272093
 20
-161.8437860557733
 30
0.0
 10
615.5575930259329
 20
-161.6651044682039
 30
0.0
 10
607.5692612845669
 20
-161.8849464841869
 30
0.0
 10
595.0455579404406
 20
-162.2296109583749
 30
0.0
 10
591.3134640571498
 20
-168.1092962439534
 30
0.0
 10
597.864194198959
 20
-178.8962909528345
 30
0.0
 10
604.5666296772542
 20
-189.9331937196584
 30
0.0
 10
612.7310455446295
 20
-200.0786748427672
 30
0.0
 10
620.191668167894
 20
-210.6593835687008
 30
0.0
 10
647.9761881708619
 20
-250.0634526173844
 30
0.0
 10
676.6497530553315
 20
-289.393825060688
 30
0.0
 10
689.788358736916
 20
-336.4413576540755
 30
0.0
 10
716.7265816244144
 20
-432.9036270713341
 30
0.0
 10
704.4394000739248
 20
-522.689045157802
 30
0.0
 10
639.394175183199
 20
-602.1267536108389
 30
0.0
 10
608.2493548140683
 20
-640.1629620539552
 30
0.0
 10
572.2353975204096
 20
-671.9436681754833
 30
0.0
 10
526.927281373497
 20
-692.4023619262334
 30
0.0
 10
493.3369424590637
 20
-707.5700434601913
 30
0.0
 10
457.810459094665
 20
-714.4344722599672
 30
0.0
 10
421.47984916715
 20
-716.8944211472572
 30
0.0
 10
360.3000375428201
 20
-721.0369818642066
 30
0.0
 10
301.6383545493081
 20
-711.3850184371186
 30
0.0
 10
248.603690041582
 20
-678.840285126329
 30
0.0
 10
198.6744436183117
 20
-648.2011718479826
 30
0.0
 10
155.9202688156574
 20
-610.0561076956528
 30
0.0
 10
128.4456404069006
 20
-557.0079295970754
 30
0.0
 10
109.1701858907354
 20
-519.7907873652512
 30
0.0
 10
105.307847560448
 20
-479.5603520499144
 30
0.0
 10
103.648380513865
 20
-438.5629695231783
 30
0.0
 10
101.0614149075454
 20
-374.6515960215784
 30
0.0
 10
119.8918366157177
 20
-316.4906628719546
 30
0.0
 10
149.5819151099622
 20
-261.200230327644
 30
0.0
 10
163.5799113202602
 20
-235.1324286920462
 30
0.0
 10
178.9373688282458
 20
-209.7869590457958
 30
0.0
 10
193.9638112678767
 20
-184.2821020280589
 30
0.0
 10
202.2903647601543
 20
-170.1491778759446
 30
0.0
 10
199.0541653350947
 20
-163.1108210130242
 30
0.0
 10
182.6795724393642
 20
-162.0129945482486
 30
0.0
 10
174.9670045334087
 20
-161.4958959757296
 30
0.0
 10
167.191044983937
 20
-161.9243498062542
 30
0.0
 10
158.1189775823295
 20
-161.9243498062542
 30
0.0
  0
SPLINE
  5
46
330
41
100
AcDbEntity
  8
Layer 1
370
     0
100
AcDbSpline
210
0.0
220
0.0
230
1.0
 70
    11
 71
     3
 72
    38
 73
    34
 74
     0
 42
0.0000000001
 43
0.0000000001
 12
1.0
 22
0.0
 32
0.0
 13
1.0
 23
0.0
 33
0.0
 40
0.0
 40
0.0
 40
0.0
 40
0.0
 40
1.0
 40
1.0
 40
1.0
 40
2.0
 40
2.0
 40
2.0
 40
3.0
 40
3.0
 40
3.0
 40
4.0
 40
4.0
 40
4.0
 40
5.0
 40
5.0
 40
5.0
 40
6.0
 40
6.0
 40
6.0
 40
7.0
 40
7.0
 40
7.0
 40
8.0
 40
8.0
 40
8.0
 40
9.0
 40
9.0
 40
9.0
 40
10.0
 40
10.0
 40
10.0
 40
11.0
 40
11.0
 40
11.0
 40
11.0
 10
400.9262207429847
 20
-683.2611307443167
 30
0.0
 10
440.7994286981657
 20
-683.2633716915425
 30
0.0
 10
482.0413461025619
 20
-674.4684008098702
 30
0.0
 10
520.6893670922636
 20
-655.0135156016131
 30
0.0
 10
530.1166585830197
 20
-650.2680042657503
 30
0.0
 10
539.1087309593913
 20
-644.118098093777
 30
0.0
 10
547.0897626453971
 20
-637.2138075963649
 30
0.0
 10
553.2486665600209
 20
-631.8858537040815
 30
0.0
 10
555.6397912044631
 20
-623.7783782685055
 30
0.0
 10
550.0792201993172
 20
-616.2188823373053
 30
0.0
 10
544.5118923987466
 20
-608.6501849409797
 30
0.0
 10
537.3003884088284
 20
-610.6973581398961
 30
0.0
 10
530.2369567045898
 20
-614.3503397953391
 30
0.0
 10
527.9433472182482
 20
-615.5364799530835
 30
0.0
 10
525.4772527029563
 20
-616.3843389408648
 30
0.0
 10
523.1182822558403
 20
-617.4494339946323
 30
0.0
 10
466.8743096897742
 20
-642.8446968091794
 30
0.0
 10
408.2186365092784
 20
-651.3171071052202
 30
0.0
 10
347.7006852529257
 20
-638.9368922910817
 30
0.0
 10
322.5691581593164
 20
-633.7957519084994
 30
0.0
 10
298.4124940398624
 20
-623.8694422148928
 30
0.0
 10
273.8377234939308
 20
-616.0401158653713
 30
0.0
 10
267.5535811877126
 20
-614.037965333464
 30
0.0
 10
259.9736451015078
 20
-609.7193544442471
 30
0.0
 10
255.7879631273208
 20
-616.8685872642654
 30
0.0
 10
252.6966613127042
 20
-622.148530559909
 30
0.0
 10
252.0295211372468
 20
-630.2399458736963
 30
0.0
 10
253.46106199317
 20
-636.331689279019
 30
0.0
 10
254.5901428810021
 20
-641.1364159476561
 30
0.0
 10
259.7825194660827
 20
-646.3516434036956
 30
0.0
 10
264.5067418032959
 20
-648.7322763406664
 30
0.0
 10
306.3200667967076
 20
-669.8025449617835
 30
0.0
 10
350.6901767605941
 20
-681.4548593722502
 30
0.0
 10
400.9262207429847
 20
-683.2611307443167
 30
0.0
  0
SPLINE
  5
47
330
41
100
AcDbEntity
  8
Layer 1
370
     0
100
AcDbSpline
210
0.0
220
0.0
230
1.0
 70
    11
 71
     3
 72
    32
 73
    28
 74
     0
 42
0.0000000001
 43
0.0000000001
 12
1.0
 22
0.0
 32
0.0
 13
1.0
 23
0.0
 33
0.0
 40
0.0
 40
0.0
 40
0.0
 40
0.0
 40
1.0
 40
1.0
 40
1.0
 40
2.0
 40
2.0
 40
2.0
 40
3.0
 40
3.0
 40
3.0
 40
4.0
 40
4.0
 40
4.0
 40
5.0
 40
5.0
 40
5.0
 40
6.0
 40
6.0
 40
6.0
 40
7.0
 40
7.0
 40
7.0
 40
8.0
 40
8.0
 40
8.0
 40
9.0
 40
9.0
 40
9.0
 40
9.0
 10
199.3511936734094
 20
-588.7085285961894
 30
0.0
 10
205.4171595073631
 20
-586.2282033258216
 30
0.0
 10
215.310242664078
 20
-575.8419178755721
 30
0.0
 10
217.3896780495661
 20
-572.3766071224654
 30
0.0
 10
219.6966045899426
 20
-568.5321899371556
 30
0.0
 10
217.612813576724
 20
-560.3246630725716
 30
0.0
 10
214.9181448237659
 20
-555.5289044275723
 30
0.0
 10
206.586829318634
 20
-540.7014394270955
 30
0.0
 10
196.9567745460572
 20
-526.6074092908584
 30
0.0
 10
187.9481666954543
 20
-512.1555745807909
 30
0.0
 10
181.9164620012443
 20
-502.4793681791616
 30
0.0
 10
174.880295154926
 20
-500.4695780544334
 30
0.0
 10
165.0379530748232
 20
-505.8909387015683
 30
0.0
 10
153.7547583239957
 20
-512.1059681580955
 30
0.0
 10
150.037705950117
 20
-519.629099627482
 30
0.0
 10
155.5403455664309
 20
-529.1396834420011
 30
0.0
 10
161.7407633279363
 20
-539.8562594320738
 30
0.0
 10
168.2567451401019
 20
-550.3869321929033
 30
0.0
 10
174.9338856193071
 20
-560.8121384486203
 30
0.0
 10
180.5430145423588
 20
-569.5698283788734
 30
0.0
 10
185.2634580776203
 20
-579.4080020019574
 30
0.0
 10
192.7209832072767
 20
-586.5793346567934
 30
0.0
 10
193.7451804066804
 20
-587.5642258978751
 30
0.0
 10
194.8070786176868
 20
-588.5736068404312
 30
0.0
 10
196.133326844425
 20
-589.0838773447231
 30
0.0
 10
196.9629693486377
 20
-589.4030551259966
 30
0.0
 10
198.0719820850372
 20
-589.2315880587139
 30
0.0
 10
199.3511936734094
 20
-588.7085285961894
 30
0.0
  0
SPLINE
  5
48
330
41
100
AcDbEntity
  8
Layer 1
370
     0
100
AcDbSpline
210
0.0
220
0.0
230
1.0
 70
    11
 71
     3
 72
    26
 73
    22
 74
     0
 42
0.0000000001
 43
0.0000000001
 12
1.0
 22
0.0
 32
0.0
 13
1.0
 23
0.0
 33
0.0
 40
0.0
 40
0.0
 40
0.0
 40
0.0
 40
1.0
 40
1.0
 40
1.0
 40
2.0
 40
2.0
 40
2.0
 40
3.0
 40
3.0
 40
3.0
 40
4.0
 40
4.0
 40
4.0
 40
5.0
 40
5.0
 40
5.0
 40
6.0
 40
6.0
 40
6.0
 40
7.0
 40
7.0
 40
7.0
 40
7.0
 10
647.5232448039897
 20
-523.5788216761703
 30
0.0
 10
647.7500118778898
 20
-514.9865661711519
 30
0.0
 10
640.8176771954058
 20
-506.4132877371267
 30
0.0
 10
631.8391611464522
 20
-504.0523773171935
 30
0.0
 10
624.5213479782578
 20
-502.1282524932631
 30
0.0
 10
618.4507577566037
 20
-503.0375338072954
 30
0.0
 10
613.926013676295
 20
-510.6155345299867
 30
0.0
 10
604.2687534648558
 20
-526.7896050911258
 30
0.0
 10
593.7559946728161
 20
-542.4502610611726
 30
0.0
 10
583.8223509701056
 20
-558.4630852832397
 30
0.0
 10
578.4833621104171
 20
-567.0693072916984
 30
0.0
 10
580.9938681252897
 20
-575.041646818765
 30
0.0
 10
590.6662717073814
 20
-581.9502494418994
 30
0.0
 10
599.4688821818763
 20
-588.237566423355
 30
0.0
 10
607.1736661915929
 20
-587.4601275044824
 30
0.0
 10
613.506691602819
 20
-578.4386077035651
 30
0.0
 10
624.2695104628183
 20
-563.1068957374664
 30
0.0
 10
634.2198954427058
 20
-547.228909911797
 30
0.0
 10
644.8230794103856
 20
-531.8008052207915
 30
0.0
 10
646.6086791664311
 20
-529.2026780868546
 30
0.0
 10
647.4490591086269
 20
-526.3897343824246
 30
0.0
 10
647.5232448039897
 20
-523.5788216761703
 30
0.0
  0
SPLINE
  5
49
330
41
100
AcDbEntity
  8
Layer 1
370
     0
100
AcDbSpline
210
0.0
220
0.0
230
1.0
 70
    11
 71
     3
 72
    26
 73
    22
 74
     0
 42
0.0000000001
 43
0.0000000001
 12
1.0
 22
0.0
 32
0.0
 13
1.0
 23
0.0
 33
0.0
 40
0.0
 40
0.0
 40
0.0
 40
0.0
 40
1.0
 40
1.0
 40
1.0
 40
2.0
 40
2.0
 40
2.0
 40
3.0
 40
3.0
 40
3.0
 40
4.0
 40
4.0
 40
4.0
 40
5.0
 40
5.0
 40
5.0
 40
6.0
 40
6.0
 40
6.0
 40
7.0
 40
7.0
 40
7.0
 40
7.0
 10
669.8126796447032
 20
-422.7830235078081
 30
0.0
 10
669.9692872484375
 20
-413.9960827303694
 30
0.0
 10
669.7345737855703
 20
-405.1674697332974
 30
0.0
 10
669.0285631679108
 20
-396.154978624837
 30
0.0
 10
668.1476671854161
 20
-384.9092942747438
 30
0.0
 10
659.5101058695309
 20
-383.0446224598054
 30
0.0
 10
650.5288986918331
 20
-383.4666675207991
 30
0.0
 10
642.1111539266221
 20
-383.8622286600266
 30
0.0
 10
634.2018665056112
 20
-385.7778650474938
 30
0.0
 10
633.7426420929041
 20
-396.8866478942946
 30
0.0
 10
632.9498221271588
 20
-416.0628747103056
 30
0.0
 10
631.7654475641975
 20
-435.22317721951
 30
0.0
 10
631.0155451332139
 20
-454.4007621853543
 30
0.0
 10
630.5911233100105
 20
-465.2545863545201
 30
0.0
 10
634.5520993941209
 20
-469.1571959495013
 30
0.0
 10
646.1216006184441
 20
-470.2695885712455
 30
0.0
 10
659.3516057077122
 20
-471.5416313140931
 30
0.0
 10
666.1854080939011
 20
-467.5612704857122
 30
0.0
 10
667.4141972316593
 20
-456.975824055221
 30
0.0
 10
668.7529608405912
 20
-445.4429959053359
 30
0.0
 10
669.6101267165941
 20
-434.1478649403725
 30
0.0
 10
669.8126796447032
 20
-422.7830235078081
 30
0.0
  0
SPLINE
  5
4A
330
41
100
AcDbEntity
  8
Layer 1
370
     0
100
AcDbSpline
210
0.0
220
0.0
230
1.0
 70
    11
 71
     3
 72
    26
 73
    22
 74
     0
 42
0.0000000001
 43
0.0000000001
 12
1.0
 22
0.0
 32
0.0
 13
1.0
 23
0.0
 33
0.0
 40
0.0
 40
0.0
 40
0.0
 40
0.0
 40
1.0
 40
1.0
 40
1.0
 40
2.0
 40
2.0
 40
2.0
 40
3.0
 40
3.0
 40
3.0
 40
4.0
 40
4.0
 40
4.0
 40
5.0
 40
5.0
 40
5.0
 40
6.0
 40
6.0
 40
6.0
 40
7.0
 40
7.0
 40
7.0
 40
7.0
 10
133.8753215182805
 20
-428.6361078106556
 30
0.0
 10
133.8414746561803
 20
-438.3633074411637
 30
0.0
 10
134.2069077481301
 20
-448.0836724876681
 30
0.0
 10
135.2517366712964
 20
-457.8887286359377
 30
0.0
 10
136.2639614985455
 20
-467.3878322991814
 30
0.0
 10
144.3012884951822
 20
-472.7504529659855
 30
0.0
 10
155.4367929399714
 20
-471.7267814821626
 30
0.0
 10
166.6879862853302
 20
-470.6925164296335
 30
0.0
 10
172.0051683517404
 20
-465.2249107806429
 30
0.0
 10
171.5254104112273
 20
-455.0208933996746
 30
0.0
 10
170.640788005122
 20
-436.2054590871348
 30
0.0
 10
169.7190711316716
 20
-417.3916206006479
 30
0.0
 10
168.7556081276889
 20
-398.5800570151341
 30
0.0
 10
168.2661733696059
 20
-389.0239789663437
 30
0.0
 10
162.7365172500604
 20
-383.6620713282027
 30
0.0
 10
151.9491702710648
 20
-383.8392419740812
 30
0.0
 10
143.4949373768613
 20
-383.9781122465129
 30
0.0
 10
135.6517779556634
 20
-386.196870710176
 30
0.0
 10
135.0195132686113
 20
-397.1498634522113
 30
0.0
 10
134.4088409405958
 20
-407.7288030382651
 30
0.0
 10
133.9116824298444
 20
-418.1863992236285
 30
0.0
 10
133.8753215182805
 20
-428.6361078106556
 30
0.0
  0
SPLINE
  5
4B
330
41
100
AcDbEntity
  8
Layer 1
370
     0
100
AcDbSpline
210
0.0
220
0.0
230
1.0
 70
    11
 71
     3
 72
    29
 73
    25
 74
     0
 42
0.0000000001
 43
0.0000000001
 12
1.0
 22
0.0
 32
0.0
 13
1.0
 23
0.0
 33
0.0
 40
0.0
 40
0.0
 40
0.0
 40
0.0
 40
1.0
 40
1.0
 40
1.0
 40
2.0
 40
2.0
 40
2.0
 40
3.0
 40
3.0
 40
3.0
 40
4.0
 40
4.0
 40
4.0
 40
5.0
 40
5.0
 40
5.0
 40
6.0
 40
6.0
 40
6.0
 40
7.0
 40
7.0
 40
7.0
 40
8.0
 40
8.0
 40
8.0
 40
8.0
 10
661.6502925479581
 20
-336.0774265250284
 30
0.0
 10
661.6518552533253
 20
-335.2851494602091
 30
0.0
 10
661.5881423787869
 20
-334.4599003033054
 30
0.0
 10
661.4532370257057
 20
-333.6003820632359
 30
0.0
 10
659.8152750245608
 20
-323.1645474976958
 30
0.0
 10
653.4828581479742
 20
-311.7306234204689
 30
0.0
 10
648.5687279385111
 20
-302.4683145672989
 30
0.0
 10
643.5012996954993
 20
-292.9170647067049
 30
0.0
 10
637.5874667088974
 20
-283.314549680822
 30
0.0
 10
632.6111126060368
 20
-274.0354001356809
 30
0.0
 10
628.2986721593334
 20
-265.994215984816
 30
0.0
 10
619.5595215130543
 20
-268.0650843337407
 30
0.0
 10
612.8445189632821
 20
-271.7257896818701
 30
0.0
 10
606.2501582580462
 20
-275.3207274087745
 30
0.0
 10
600.4802624096974
 20
-280.0500767616113
 30
0.0
 10
604.3789333701588
 20
-289.4594067208109
 30
0.0
 10
612.0140103396352
 20
-307.8863762270094
 30
0.0
 10
619.4586067948585
 20
-326.3998938313962
 30
0.0
 10
626.5395246782118
 20
-345.0456612758944
 30
0.0
 10
630.1292404365122
 20
-354.4982557479534
 30
0.0
 10
637.1101693997443
 20
-354.3842662219949
 30
0.0
 10
644.6258409187267
 20
-352.2852287223914
 30
0.0
 10
652.9358063249147
 20
-349.9643544282662
 30
0.0
 10
661.6322738755589
 20
-345.2127255855621
 30
0.0
 10
661.6502925479581
 20
-336.0774265250284
 30
0.0
  0
SPLINE
  5
4C
330
41
100
AcDbEntity
  8
Layer 1
370
     0
100
AcDbSpline
210
0.0
220
0.0
230
1.0
 70
    11
 71
     3
 72
    26
 73
    22
 74
     0
 42
0.0000000001
 43
0.0000000001
 12
1.0
 22
0.0
 32
0.0
 13
1.0
 23
0.0
 33
0.0
 40
0.0
 40
0.0
 40
0.0
 40
0.0
 40
1.0
 40
1.0
 40
1.0
 40
2.0
 40
2.0
 40
2.0
 40
3.0
 40
3.0
 40
3.0
 40
4.0
 40
4.0
 40
4.0
 40
5.0
 40
5.0
 40
5.0
 40
6.0
 40
6.0
 40
6.0
 40
7.0
 40
7.0
 40
7.0
 40
7.0
 10
171.3443333269661
 20
-353.6324103008974
 30
0.0
 10
175.7660153774195
 20
-352.3488749574217
 30
0.0
 10
179.5349990190825
 20
-349.090665491718
 30
0.0
 10
181.5090255394043
 20
-343.5633086392972
 30
0.0
 10
188.0733202026831
 20
-325.1828727417951
 30
0.0
 10
193.1339053232214
 20
-306.2694139649666
 30
0.0
 10
198.9371437500004
 20
-287.6115929406897
 30
0.0
 10
202.0828988845369
 20
-277.4977906624626
 30
0.0
 10
195.596808186403
 20
-273.1334440775827
 30
0.0
 10
188.1799179877989
 20
-270.0491876652304
 30
0.0
 10
180.4157828303223
 20
-266.820559925497
 30
0.0
 10
172.6146635551713
 20
-266.6657478212646
 30
0.0
 10
168.7298032808358
 20
-276.197565918641
 30
0.0
 10
161.7747223609558
 20
-293.2623985829123
 30
0.0
 10
154.6278732039464
 20
-310.2774069851594
 30
0.0
 10
148.5168708704732
 20
-327.6494068564662
 30
0.0
 10
145.9541850544028
 20
-334.9344601518396
 30
0.0
 10
146.2691685567424
 20
-343.0878750202755
 30
0.0
 10
152.3660285499454
 20
-348.4867907649077
 30
0.0
 10
157.945204233587
 20
-353.4272846381518
 30
0.0
 10
165.2622364273166
 20
-355.3979344258914
 30
0.0
 10
171.3443333269661
 20
-353.6324103008974
 30
0.0
  0
HATCH
  5
4D
330
41
100
AcDbEntity
  8
Layer 1
 62
     7
420
 16777215
100
AcDbHatch
 10
0.0
 20
0.0
 30
0.0
210
0.0
220
0.0
230
1.0
  2
SOLID
 70
     1
 71
     0
 91
        8
 92
        1
 93
        1
 72
     4
 94
        3
 73
     0
 74
     1
 95
       95
 96
       91
 40
0.0
 40
0.0
 40
0.0
 40
0.0
 40
1.0
 40
1.0
 40
1.0
 40
2.0
 40
2.0
 40
2.0
 40
3.0
 40
3.0
 40
3.0
 40
4.0
 40
4.0
 40
4.0
 40
5.0
 40
5.0
 40
5.0
 40
6.0
 40
6.0
 40
6.0
 40
7.0
 40
7.0
 40
7.0
 40
8.0
 40
8.0
 40
8.0
 40
9.0
 40
9.0
 40
9.0
 40
10.0
 40
10.0
 40
10.0
 40
11.0
 40
11.0
 40
11.0
 40
12.0
 40
12.0
 40
12.0
 40
13.0
 40
13.0
 40
13.0
 40
14.0
 40
14.0
 40
14.0
 40
15.0
 40
15.0
 40
15.0
 40
16.0
 40
16.0
 40
16.0
 40
17.0
 40
17.0
 40
17.0
 40
18.0
 40
18.0
 40
18.0
 40
19.0
 40
19.0
 40
19.0
 40
20.0
 40
20.0
 40
20.0
 40
21.0
 40
21.0
 40
21.0
 40
22.0
 40
22.0
 40
22.0
 40
23.0
 40
23.0
 40
23.0
 40
24.0
 40
24.0
 40
24.0
 40
25.0
 40
25.0
 40
25.0
 40
26.0
 40
26.0
 40
26.0
 40
27.0
 40
27.0
 40
27.0
 40
28.0
 40
28.0
 40
28.0
 40
29.0
 40
29.0
 40
29.0
 40
30.0
 40
30.0
 40
30.0
 40
30.0
 10
158.1189775823295
 20
-161.9243498062542
 10
158.1189775823295
 20
-136.522499965009
 10
158.1189775823295
 20
-111.5151968948339
 10
158.1189775823295
 20
-85.54767340340277
 10
189.0242797397541
 20
-85.54767340340277
 10
219.3952093564549
 20
-84.32788720562348
 10
249.6106393055688
 20
-85.96983942461702
 10
270.2901851962424
 20
-87.09359806278826
 10
290.2767181571144
 20
-116.4988895136612
 10
291.6962563638772
 20
-142.67313614252
 10
292.9363999544057
 20
-165.5390146595009
 10
284.0740648409519
 20
-185.3946474416607
 10
273.908517054042
 20
-204.8540230328044
 10
257.6331964227575
 20
-236.0089955719468
 10
238.908384657906
 20
-266.0868025006675
 10
225.1232062824174
 20
-298.2911495092467
 10
206.0526520119474
 20
-342.842928990337
 10
195.6243956049084
 20
-389.4771596122873
 10
201.4813488576356
 20
-438.9776126675733
 10
211.0200765422924
 20
-519.5948063441683
 10
270.3811982120096
 20
-588.1829348462725
 10
349.838633791388
 20
-605.4130348110357
 10
436.9667977733952
 20
-624.3065287853005
 10
508.697039870789
 20
-597.2174154512177
 10
565.2663572296515
 20
-528.8633980267932
 10
599.0316937502284
 20
-488.0639318846506
 10
610.3930245587071
 20
-440.9524643878149
 10
605.8241745625346
 20
-388.8100024599571
 10
600.6142099370991
 20
-329.3508987681344
 10
574.3878273314804
 20
-278.5377090136781
 10
543.3766149522926
 20
-229.2481256970359
 10
528.2600338058492
 20
-205.2215723316986
 10
513.057583636135
 20
-180.9700329578873
 10
501.0987687618199
 20
-155.3258043018432
 10
491.8740113650965
 20
-135.5444156292169
 10
496.387856292984
 20
-114.873319977044
 10
512.63889999598
 20
-99.13060841380775
 10
518.3758946645958
 20
-93.57304443728026
 10
526.8957722973428
 20
-87.90570375617881
 10
534.3500795238797
 20
-87.61903440202332
 10
566.8409282399934
 20
-86.36953018818258
 10
599.4072221793995
 20
-87.08208774294144
 10
633.2053919722202
 20
-87.08208774294144
 10
633.2053919722202
 20
-98.66868255619738
 10
633.2053919722202
 20
-111.1414849910643
 10
633.2053919722202
 20
-123.6142874259331
 10
633.2053919722202
 20
-135.7793288641442
 10
633.2053919722202
 20
-147.9443703023508
 10
633.2053919722202
 20
-161.8437860557733
 10
623.5568918272093
 20
-161.8437860557733
 10
615.5575930259329
 20
-161.6651044682039
 10
607.5692612845669
 20
-161.8849464841869
 10
595.0455579404406
 20
-162.2296109583749
 10
591.3134640571498
 20
-168.1092962439534
 10
597.864194198959
 20
-178.8962909528345
 10
604.5666296772542
 20
-189.9331937196584
 10
612.7310455446295
 20
-200.0786748427672
 10
620.191668167894
 20
-210.6593835687008
 10
647.9761881708619
 20
-250.0634526173844
 10
676.6497530553315
 20
-289.393825060688
 10
689.788358736916
 20
-336.4413576540755
 10
716.7265816244144
 20
-432.9036270713341
 10
704.4394000739248
 20
-522.689045157802
 10
639.394175183199
 20
-602.1267536108389
 10
608.2493548140683
 20
-640.1629620539552
 10
572.2353975204096
 20
-671.9436681754833
 10
526.927281373497
 20
-692.4023619262334
 10
493.3369424590637
 20
-707.5700434601913
 10
457.810459094665
 20
-714.4344722599672
 10
421.47984916715
 20
-716.8944211472572
 10
360.3000375428201
 20
-721.0369818642066
 10
301.6383545493081
 20
-711.3850184371186
 10
248.603690041582
 20
-678.840285126329
 10
198.6744436183117
 20
-648.2011718479826
 10
155.9202688156574
 20
-610.0561076956528
 10
128.4456404069006
 20
-557.0079295970754
 10
109.1701858907354
 20
-519.7907873652512
 10
105.307847560448
 20
-479.5603520499144
 10
103.648380513865
 20
-438.5629695231783
 10
101.0614149075454
 20
-374.6515960215784
 10
119.8918366157177
 20
-316.4906628719546
 10
149.5819151099622
 20
-261.200230327644
 10
163.5799113202602
 20
-235.1324286920462
 10
178.9373688282458
 20
-209.7869590457958
 10
193.9638112678767
 20
-184.2821020280589
 10
202.2903647601543
 20
-170.1491778759446
 10
199.0541653350947
 20
-163.1108210130242
 10
182.6795724393642
 20
-162.0129945482486
 10
174.9670045334087
 20
-161.4958959757296
 10
167.191044983937
 20
-161.9243498062542
 10
158.1189775823295
 20
-161.9243498062542
 97
        0
 97
        0
 92
        1
 93
        1
 72
     4
 94
        3
 73
     0
 74
     1
 95
       38
 96
       34
 40
0.0
 40
0.0
 40
0.0
 40
0.0
 40
1.0
 40
1.0
 40
1.0
 40
2.0
 40
2.0
 40
2.0
 40
3.0
 40
3.0
 40
3.0
 40
4.0
 40
4.0
 40
4.0
 40
5.0
 40
5.0
 40
5.0
 40
6.0
 40
6.0
 40
6.0
 40
7.0
 40
7.0
 40
7.0
 40
8.0
 40
8.0
 40
8.0
 40
9.0
 40
9.0
 40
9.0
 40
10.0
 40
10.0
 40
10.0
 40
11.0
 40
11.0
 40
11.0
 40
11.0
 10
400.9262207429847
 20
-683.2611307443167
 10
440.7994286981657
 20
-683.2633716915425
 10
482.0413461025619
 20
-674.4684008098702
 10
520.6893670922636
 20
-655.0135156016131
 10
530.1166585830197
 20
-650.2680042657503
 10
539.1087309593913
 20
-644.118098093777
 10
547.0897626453971
 20
-637.2138075963649
 10
553.2486665600209
 20
-631.8858537040815
 10
555.6397912044631
 20
-623.7783782685055
 10
550.0792201993172
 20
-616.2188823373053
 10
544.5118923987466
 20
-608.6501849409797
 10
537.3003884088284
 20
-610.6973581398961
 10
530.2369567045898
 20
-614.3503397953391
 10
527.9433472182482
 20
-615.5364799530835
 10
525.4772527029563
 20
-616.3843389408648
 10
523.1182822558403
 20
-617.4494339946323
 10
466.8743096897742
 20
-642.8446968091794
 10
408.2186365092784
 20
-651.3171071052202
 10
347.7006852529257
 20
-638.9368922910817
 10
322.5691581593164
 20
-633.7957519084994
 10
298.4124940398624
 20
-623.8694422148928
 10
273.8377234939308
 20
-616.0401158653713
 10
267.5535811877126
 20
-614.037965333464
 10
259.9736451015078
 20
-609.7193544442471
 10
255.7879631273208
 20
-616.8685872642654
 10
252.6966613127042
 20
-622.148530559909
 10
252.0295211372468
 20
-630.2399458736963
 10
253.46106199317
 20
-636.331689279019
 10
254.5901428810021
 20
-641.1364159476561
 10
259.7825194660827
 20
-646.3516434036956
 10
264.5067418032959
 20
-648.7322763406664
 10
306.3200667967076
 20
-669.8025449617835
 10
350.6901767605941
 20
-681.4548593722502
 10
400.9262207429847
 20
-683.2611307443167
 97
        0
 97
        0
 92
        1
 93
        1
 72
     4
 94
        3
 73
     0
 74
     1
 95
       32
 96
       28
 40
0.0
 40
0.0
 40
0.0
 40
0.0
 40
1.0
 40
1.0
 40
1.0
 40
2.0
 40
2.0
 40
2.0
 40
3.0
 40
3.0
 40
3.0
 40
4.0
 40
4.0
 40
4.0
 40
5.0
 40
5.0
 40
5.0
 40
6.0
 40
6.0
 40
6.0
 40
7.0
 40
7.0
 40
7.0
 40
8.0
 40
8.0
 40
8.0
 40
9.0
 40
9.0
 40
9.0
 40
9.0
 10
199.3511936734094
 20
-588.7085285961894
 10
205.4171595073631
 20
-586.2282033258216
 10
215.310242664078
 20
-575.8419178755721
 10
217.3896780495661
 20
-572.3766071224654
 10
219.6966045899426
 20
-568.5321899371556
 10
217.612813576724
 20
-560.3246630725716
 10
214.9181448237659
 20
-555.5289044275723
 10
206.586829318634
 20
-540.7014394270955
 10
196.9567745460572
 20
-526.6074092908584
 10
187.9481666954543
 20
-512.1555745807909
 10
181.9164620012443
 20
-502.4793681791616
 10
174.880295154926
 20
-500.4695780544334
 10
165.0379530748232
 20
-505.8909387015683
 10
153.7547583239957
 20
-512.1059681580955
 10
150.037705950117
 20
-519.629099627482
 10
155.5403455664309
 20
-529.1396834420011
 10
161.7407633279363
 20
-539.8562594320738
 10
168.2567451401019
 20
-550.3869321929033
 10
174.9338856193071
 20
-560.8121384486203
 10
180.5430145423588
 20
-569.5698283788734
 10
185.2634580776203
 20
-579.4080020019574
 10
192.7209832072767
 20
-586.5793346567934
 10
193.7451804066804
 20
-587.5642258978751
 10
194.8070786176868
 20
-588.5736068404312
 10
196.133326844425
 20
-589.0838773447231
 10
196.9629693486377
 20
-589.4030551259966
 10
198.0719820850372
 20
-589.2315880587139
 10
199.3511936734094
 20
-588.7085285961894
 97
        0
 97
        0
 92
        1
 93
        1
 72
     4
 94
        3
 73
     0
 74
     1
 95
       26
 96
       22
 40
0.0
 40
0.0
 40
0.0
 40
0.0
 40
1.0
 40
1.0
 40
1.0
 40
2.0
 40
2.0
 40
2.0
 40
3.0
 40
3.0
 40
3.0
 40
4.0
 40
4.0
 40
4.0
 40
5.0
 40
5.0
 40
5.0
 40
6.0
 40
6.0
 40
6.0
 40
7.0
 40
7.0
 40
7.0
 40
7.0
 10
647.5232448039897
 20
-523.5788216761703
 10
647.7500118778898
 20
-514.9865661711519
 10
640.8176771954058
 20
-506.4132877371267
 10
631.8391611464522
 20
-504.0523773171935
 10
624.5213479782578
 20
-502.1282524932631
 10
618.4507577566037
 20
-503.0375338072954
 10
613.926013676295
 20
-510.6155345299867
 10
604.2687534648558
 20
-526.7896050911258
 10
593.7559946728161
 20
-542.4502610611726
 10
583.8223509701056
 20
-558.4630852832397
 10
578.4833621104171
 20
-567.0693072916984
 10
580.9938681252897
 20
-575.041646818765
 10
590.6662717073814
 20
-581.9502494418994
 10
599.4688821818763
 20
-588.237566423355
 10
607.1736661915929
 20
-587.4601275044824
 10
613.506691602819
 20
-578.4386077035651
 10
624.2695104628183
 20
-563.1068957374664
 10
634.2198954427058
 20
-547.228909911797
 10
644.8230794103856
 20
-531.8008052207915
 10
646.6086791664311
 20
-529.2026780868546
 10
647.4490591086269
 20
-526.3897343824246
 10
647.5232448039897
 20
-523.5788216761703
 97
        0
 97
        0
 92
        1
 93
        1
 72
     4
 94
        3
 73
     0
 74
     1
 95
       26
 96
       22
 40
0.0
 40
0.0
 40
0.0
 40
0.0
 40
1.0
 40
1.0
 40
1.0
 40
2.0
 40
2.0
 40
2.0
 40
3.0
 40
3.0
 40
3.0
 40
4.0
 40
4.0
 40
4.0
 40
5.0
 40
5.0
 40
5.0
 40
6.0
 40
6.0
 40
6.0
 40
7.0
 40
7.0
 40
7.0
 40
7.0
 10
669.8126796447032
 20
-422.7830235078081
 10
669.9692872484375
 20
-413.9960827303694
 10
669.7345737855703
 20
-405.1674697332974
 10
669.0285631679108
 20
-396.154978624837
 10
668.1476671854161
 20
-384.9092942747438
 10
659.5101058695309
 20
-383.0446224598054
 10
650.5288986918331
 20
-383.4666675207991
 10
642.1111539266221
 20
-383.8622286600266
 10
634.2018665056112
 20
-385.7778650474938
 10
633.7426420929041
 20
-396.8866478942946
 10
632.9498221271588
 20
-416.0628747103056
 10
631.7654475641975
 20
-435.22317721951
 10
631.0155451332139
 20
-454.4007621853543
 10
630.5911233100105
 20
-465.2545863545201
 10
634.5520993941209
 20
-469.1571959495013
 10
646.1216006184441
 20
-470.2695885712455
 10
659.3516057077122
 20
-471.5416313140931
 10
666.1854080939011
 20
-467.5612704857122
 10
667.4141972316593
 20
-456.975824055221
 10
668.7529608405912
 20
-445.4429959053359
 10
669.6101267165941
 20
-434.1478649403725
 10
669.8126796447032
 20
-422.7830235078081
 97
        0
 97
        0
 92
        1
 93
        1
 72
     4
 94
        3
 73
     0
 74
     1
 95
       26
 96
       22
 40
0.0
 40
0.0
 40
0.0
 40
0.0
 40
1.0
 40
1.0
 40
1.0
 40
2.0
 40
2.0
 40
2.0
 40
3.0
 40
3.0
 40
3.0
 40
4.0
 40
4.0
 40
4.0
 40
5.0
 40
5.0
 40
5.0
 40
6.0
 40
6.0
 40
6.0
 40
7.0
 40
7.0
 40
7.0
 40
7.0
 10
133.8753215182805
 20
-428.6361078106556
 10
133.8414746561803
 20
-438.3633074411637
 10
134.2069077481301
 20
-448.0836724876681
 10
135.2517366712964
 20
-457.8887286359377
 10
136.2639614985455
 20
-467.3878322991814
 10
144.3012884951822
 20
-472.7504529659855
 10
155.4367929399714
 20
-471.7267814821626
 10
166.6879862853302
 20
-470.6925164296335
 10
172.0051683517404
 20
-465.2249107806429
 10
171.5254104112273
 20
-455.0208933996746
 10
170.640788005122
 20
-436.2054590871348
 10
169.7190711316716
 20
-417.3916206006479
 10
168.7556081276889
 20
-398.5800570151341
 10
168.2661733696059
 20
-389.0239789663437
 10
162.7365172500604
 20
-383.6620713282027
 10
151.9491702710648
 20
-383.8392419740812
 10
143.4949373768613
 20
-383.9781122465129
 10
135.6517779556634
 20
-386.196870710176
 10
135.0195132686113
 20
-397.1498634522113
 10
134.4088409405958
 20
-407.7288030382651
 10
133.9116824298444
 20
-418.1863992236285
 10
133.8753215182805
 20
-428.6361078106556
 97
        0
 97
        0
 92
        1
 93
        1
 72
     4
 94
        3
 73
     0
 74
     1
 95
       29
 96
       25
 40
0.0
 40
0.0
 40
0.0
 40
0.0
 40
1.0
 40
1.0
 40
1.0
 40
2.0
 40
2.0
 40
2.0
 40
3.0
 40
3.0
 40
3.0
 40
4.0
 40
4.0
 40
4.0
 40
5.0
 40
5.0
 40
5.0
 40
6.0
 40
6.0
 40
6.0
 40
7.0
 40
7.0
 40
7.0
 40
8.0
 40
8.0
 40
8.0
 40
8.0
 10
661.6502925479581
 20
-336.0774265250284
 10
661.6518552533253
 20
-335.2851494602091
 10
661.5881423787869
 20
-334.4599003033054
 10
661.4532370257057
 20
-333.6003820632359
 10
659.8152750245608
 20
-323.1645474976958
 10
653.4828581479742
 20
-311.7306234204689
 10
648.5687279385111
 20
-302.4683145672989
 10
643.5012996954993
 20
-292.9170647067049
 10
637.5874667088974
 20
-283.314549680822
 10
632.6111126060368
 20
-274.0354001356809
 10
628.2986721593334
 20
-265.994215984816
 10
619.5595215130543
 20
-268.0650843337407
 10
612.8445189632821
 20
-271.7257896818701
 10
606.2501582580462
 20
-275.3207274087745
 10
600.4802624096974
 20
-280.0500767616113
 10
604.3789333701588
 20
-289.4594067208109
 10
612.0140103396352
 20
-307.8863762270094
 10
619.4586067948585
 20
-326.3998938313962
 10
626.5395246782118
 20
-345.0456612758944
 10
630.1292404365122
 20
-354.4982557479534
 10
637.1101693997443
 20
-354.3842662219949
 10
644.6258409187267
 20
-352.2852287223914
 10
652.9358063249147
 20
-349.9643544282662
 10
661.6322738755589
 20
-345.2127255855621
 10
661.6502925479581
 20
-336.0774265250284
 97
        0
 97
        0
 92
        1
 93
        1
 72
     4
 94
        3
 73
     0
 74
     1
 95
       26
 96
       22
 40
0.0
 40
0.0
 40
0.0
 40
0.0
 40
1.0
 40
1.0
 40
1.0
 40
2.0
 40
2.0
 40
2.0
 40
3.0
 40
3.0
 40
3.0
 40
4.0
 40
4.0
 40
4.0
 40
5.0
 40
5.0
 40
5.0
 40
6.0
 40
6.0
 40
6.0
 40
7.0
 40
7.0
 40
7.0
 40
7.0
 10
171.3443333269661
 20
-353.6324103008974
 10
175.7660153774195
 20
-352.3488749574217
 10
179.5349990190825
 20
-349.090665491718
 10
181.5090255394043
 20
-343.5633086392972
 10
188.0733202026831
 20
-325.1828727417951
 10
193.1339053232214
 20
-306.2694139649666
 10
198.9371437500004
 20
-287.6115929406897
 10
202.0828988845369
 20
-277.4977906624626
 10
195.596808186403
 20
-273.1334440775827
 10
188.1799179877989
 20
-270.0491876652304
 10
180.4157828303223
 20
-266.820559925497
 10
172.6146635551713
 20
-266.6657478212646
 10
168.7298032808358
 20
-276.197565918641
 10
161.7747223609558
 20
-293.2623985829123
 10
154.6278732039464
 20
-310.2774069851594
 10
148.5168708704732
 20
-327.6494068564662
 10
145.9541850544028
 20
-334.9344601518396
 10
146.2691685567424
 20
-343.0878750202755
 10
152.3660285499454
 20
-348.4867907649077
 10
157.945204233587
 20
-353.4272846381518
 10
165.2622364273166
 20
-355.3979344258914
 10
171.3443333269661
 20
-353.6324103008974
 97
        0
 97
        0
 75
     2
 76
     1
 98
        0
  0
ENDBLK
  5
44
330
41
100
AcDbEntity
  8
0
100
AcDbBlockEnd
  0
ENDSEC
  0
SECTION
  2
ENTITIES
  0
INSERT
  5
42
330
1F
100
AcDbEntity
  8
Layer 1
100
AcDbBlockReference
  2
block 2
 10
0.0
 20
0.0
 30
0.0
  0
ENDSEC
  0
SECTION
  2
OBJECTS
  0
DICTIONARY
  5
C
330
0
100
AcDbDictionary
281
     1
  3
ACAD_GROUP
350
D
  3
ACAD_LAYOUT
350
1A
  3
ACAD_MATERIAL
350
3B
  3
ACAD_MLEADERSTYLE
350
4F
  3
ACAD_MLINESTYLE
350
17
  3
ACAD_PLOTSETTINGS
350
19
  3
ACAD_PLOTSTYLENAME
350
E
  3
ACAD_TABLESTYLE
350
4E
  3
ACAD_VISUALSTYLE
350
2A
  0
SUN
  5
3F
330
29
100
AcDbSun
 90
        1
290
     0
 63
     7
421
 16777215
 40
1.0
291
     1
 91
  2455826
 92
 54000000
292
     0
 70
     2
 71
   256
280
     1
  0
DICTIONARY
  5
D
102
{ACAD_REACTORS
330
C
102
}
330
C
100
AcDbDictionary
281
     1
  0
DICTIONARY
  5
1A
102
{ACAD_REACTORS
330
C
102
}
330
C
100
AcDbDictionary
281
     1
  3
Layout1
350
1E
  3
Layout2
350
26
  3
Model
350
22
  0
DICTIONARY
  5
3B
102
{ACAD_REACTORS
330
C
102
}
330
C
100
AcDbDictionary
281
     1
  3
ByBlock
350
3D
  3
ByLayer
350
3C
  3
Global
350
3E
  0
DICTIONARY
  5
4F
102
{ACAD_REACTORS
330
C
102
}
330
C
100
AcDbDictionary
281
     1
  0
DICTIONARY
  5
17
102
{ACAD_REACTORS
330
C
102
}
330
C
100
AcDbDictionary
281
     1
  3
Standard
350
18
  0
DICTIONARY
  5
19
102
{ACAD_REACTORS
330
C
102
}
330
C
100
AcDbDictionary
281
     1
  0
ACDBDICTIONARYWDFLT
  5
E
102
{ACAD_REACTORS
330
C
102
}
330
C
100
AcDbDictionary
281
     1
  3
Normal
350
F
100
AcDbDictionaryWithDefault
340
F
  0
DICTIONARY
  5
4E
102
{ACAD_REACTORS
330
C
102
}
330
C
100
AcDbDictionary
281
     1
  0
DICTIONARY
  5
2A
102
{ACAD_REACTORS
330
C
102
}
330
C
100
AcDbDictionary
281
     1
  3
2dWireframe
350
2F
  3
3D Hidden
350
31
  3
3dWireframe
350
30
  3
Basic
350
32
  3
Brighten
350
36
  3
ColorChange
350
3A
  3
Conceptual
350
34
  3
Dim
350
35
  3
Facepattern
350
39
  3
Flat
350
2B
  3
FlatWithEdges
350
2C
  3
Gouraud
350
2D
  3
GouraudWithEdges
350
2E
  3
Linepattern
350
38
  3
Realistic
350
33
  3
Thicken
350
37
  0
LAYOUT
  5
1E
102
{ACAD_REACTORS
330
1A
102
}
330
1A
100
AcDbPlotSettings
  1

  2
none_device
  4

  6

 40
0.0
 41
0.0
 42
0.0
 43
0.0
 44
0.0
 45
0.0
 46
0.0
 47
0.0
 48
0.0
 49
0.0
140
0.0
141
0.0
142
1.0
143
1.0
 70
   688
 72
     0
 73
     0
 74
     5
  7

 75
    16
 76
     0
 77
     2
 78
   300
147
1.0
148
0.0
149
0.0
100
AcDbLayout
  1
Layout1
 70
     1
 71
     1
 10
0.0
 20
0.0
 11
12.0
 21
9.0
 12
0.0
 22
0.0
 32
0.0
 14
1.000000000000000E+20
 24
1.000000000000000E+20
 34
1.000000000000000E+20
 15
-1.000000000000000E+20
 25
-1.000000000000000E+20
 35
-1.000000000000000E+20
146
0.0
 13
0.0
 23
0.0
 33
0.0
 16
1.0
 26
0.0
 36
0.0
 17
0.0
 27
1.0
 37
0.0
 76
     0
330
1B
  0
LAYOUT
  5
26
102
{ACAD_REACTORS
330
1A
102
}
330
1A
100
AcDbPlotSettings
  1

  2
none_device
  4

  6

 40
0.0
 41
0.0
 42
0.0
 43
0.0
 44
0.0
 45
0.0
 46
0.0
 47
0.0
 48
0.0
 49
0.0
140
0.0
141
0.0
142
1.0
143
1.0
 70
   688
 72
     0
 73
     0
 74
     5
  7

 75
    16
 76
     0
 77
     2
 78
   300
147
1.0
148
0.0
149
0.0
100
AcDbLayout
  1
Layout2
 70
     1
 71
     2
 10
0.0
 20
0.0
 11
0.0
 21
0.0
 12
0.0
 22
0.0
 32
0.0
 14
0.0
 24
0.0
 34
0.0
 15
0.0
 25
0.0
 35
0.0
146
0.0
 13
0.0
 23
0.0
 33
0.0
 16
1.0
 26
0.0
 36
0.0
 17
0.0
 27
1.0
 37
0.0
 76
     0
330
23
  0
LAYOUT
  5
22
102
{ACAD_REACTORS
330
1A
102
}
330
1A
100
AcDbPlotSettings
  1

  2
none_device
  4

  6

 40
0.0
 41
0.0
 42
0.0
 43
0.0
 44
0.0
 45
0.0
 46
0.0
 47
0.0
 48
0.0
 49
0.0
140
0.0
141
0.0
142
1.0
143
1.0
 70
  1712
 72
     0
 73
     0
 74
     0
  7

 75
     0
 76
     0
 77
     2
 78
   300
147
1.0
148
0.0
149
0.0
100
AcDbLayout
  1
Model
 70
     1
 71
     0
 10
0.0
 20
0.0
 11
12.0
 21
9.0
 12
0.0
 22
0.0
 32
0.0
 14
1.000000000000000E+20
 24
1.000000000000000E+20
 34
1.000000000000000E+20
 15
-1.000000000000000E+20
 25
-1.000000000000000E+20
 35
-1.000000000000000E+20
146
0.0
 13
0.0
 23
0.0
 33
0.0
 16
1.0
 26
0.0
 36
0.0
 17
0.0
 27
1.0
 37
0.0
 76
     0
330
1F
331
29
  0
MATERIAL
  5
3D
102
{ACAD_REACTORS
330
3B
102
}
330
3B
100
AcDbMaterial
  1
ByBlock
 72
     1
 94
      127
  0
MATERIAL
  5
3C
102
{ACAD_REACTORS
330
3B
102
}
330
3B
100
AcDbMaterial
  1
ByLayer
 72
     1
 94
      127
  0
MATERIAL
  5
3E
102
{ACAD_REACTORS
330
3B
102
}
330
3B
100
AcDbMaterial
  1
Global
 72
     1
 94
      127
  0
MLINESTYLE
  5
18
102
{ACAD_REACTORS
330
17
102
}
330
17
100
AcDbMlineStyle
  2
Standard
 70
     0
  3

 62
   256
 51
90.0
 52
90.0
 71
     2
 49
0.5
 62
   256
  6
BYLAYER
 49
-0.5
 62
   256
  6
BYLAYER
  0
ACDBPLACEHOLDER
  5
F
102
{ACAD_REACTORS
330
E
102
}
330
E
  0
VISUALSTYLE
  5
2F
102
{ACAD_REACTORS
330
2A
102
}
330
2A
100
AcDbVisualStyle
  2
2dWireframe
 70
     4
177
     2
291
     0
 71
     0
176
     1
 72
     2
176
     1
 73
     0
176
     1
 90
        0
176
     1
 40
-0.6
176
     1
 41
-30.0
176
     1
 62
     5
 63
     7
421
 16777215
176
     1
 74
     1
176
     1
 91
        4
176
     1
 64
     7
176
     1
 65
   257
176
     1
 75
     1
176
     1
175
     1
176
     1
 42
1.0
176
     1
 92
        0
176
     1
 66
   257
176
     1
 43
1.0
176
     1
 76
     1
176
     1
 77
     6
176
     1
 78
     2
176
     1
 67
     7
176
     1
 79
     5
176
     1
170
     0
176
     1
171
     0
176
     1
290
     0
176
     1
 93
        1
176
     1
 44
0.0
176
     1
173
     0
176
     1
  0
VISUALSTYLE
  5
31
102
{ACAD_REACTORS
330
2A
102
}
330
2A
100
AcDbVisualStyle
  2
3D Hidden
 70
     6
177
     2
291
     0
 71
     1
176
     1
 72
     2
176
     1
 73
     2
176
     1
 90
        0
176
     1
 40
-0.6
176
     1
 41
-30.0
176
     1
 62
     5
 63
     7
421
 16777215
176
     1
 74
     2
176
     1
 91
        2
176
     1
 64
     7
176
     1
 65
   257
176
     1
 75
     2
176
     1
175
     1
176
     1
 42
40.0
176
     1
 92
        0
176
     1
 66
   257
176
     1
 43
1.0
176
     1
 76
     1
176
     1
 77
     6
176
     1
 78
     2
176
     1
 67
     7
176
     1
 79
     3
176
     1
170
     0
176
     1
171
     0
176
     1
290
     0
176
     1
 93
        1
176
     1
 44
0.0
176
     1
173
     0
176
     1
  0
VISUALSTYLE
  5
30
102
{ACAD_REACTORS
330
2A
102
}
330
2A
100
AcDbVisualStyle
  2
3dWireframe
 70
     5
177
     2
291
     0
 71
     0
176
     1
 72
     2
176
     1
 73
     0
176
     1
 90
        0
176
     1
 40
-0.6
176
     1
 41
-30.0
176
     1
 62
     5
 63
     7
421
 16777215
176
     1
 74
     1
176
     1
 91
        4
176
     1
 64
     7
176
     1
 65
   257
176
     1
 75
     1
176
     1
175
     1
176
     1
 42
1.0
176
     1
 92
        0
176
     1
 66
   257
176
     1
 43
1.0
176
     1
 76
     1
176
     1
 77
     6
176
     1
 78
     2
176
     1
 67
     7
176
     1
 79
     5
176
     1
170
     0
176
     1
171
     0
176
     1
290
     0
176
     1
 93
        1
176
     1
 44
0.0
176
     1
173
     0
176
     1
  0
VISUALSTYLE
  5
32
102
{ACAD_REACTORS
330
2A
102
}
330
2A
100
AcDbVisualStyle
  2
Basic
 70
     7
177
     2
291
     1
 71
     1
176
     1
 72
     0
176
     1
 73
     1
176
     1
 90
        0
176
     1
 40
-0.6
176
     1
 41
-30.0
176
     1
 62
     5
 63
     7
421
 16777215
176
     1
 74
     0
176
     1
 91
        4
176
     1
 64
     7
176
     1
 65
   257
176
     1
 75
     1
176
     1
175
     1
176
     1
 42
1.0
176
     1
 92
        8
176
     1
 66
     7
176
     1
 43
1.0
176
     1
 76
     1
176
     1
 77
     6
176
     1
 78
     2
176
     1
 67
     7
176
     1
 79
     5
176
     1
170
     0
176
     1
171
     0
176
     1
290
     0
176
     1
 93
        1
176
     1
 44
0.0
176
     1
173
     0
176
     1
  0
VISUALSTYLE
  5
36
102
{ACAD_REACTORS
330
2A
102
}
330
2A
100
AcDbVisualStyle
  2
Brighten
 70
    12
177
     2
291
     1
 71
     2
176
     1
 72
     2
176
     1
 73
     0
176
     1
 90
        0
176
     1
 40
-0.6
176
     1
 41
-30.0
176
     1
 62
     5
 63
     7
421
 16777215
176
     1
 74
     1
176
     1
 91
        4
176
     1
 64
     7
176
     1
 65
   257
176
     1
 75
     1
176
     1
175
     1
176
     1
 42
1.0
176
     1
 92
        8
176
     1
 66
     7
176
     1
 43
1.0
176
     1
 76
     1
176
     1
 77
     6
176
     1
 78
     2
176
     1
 67
     7
176
     1
 79
     5
176
     1
170
     0
176
     1
171
     0
176
     1
290
     0
176
     1
 93
        1
176
     1
 44
50.0
176
     1
173
     0
176
     1
  0
VISUALSTYLE
  5
3A
102
{ACAD_REACTORS
330
2A
102
}
330
2A
100
AcDbVisualStyle
  2
ColorChange
 70
    16
177
     2
291
     1
 71
     2
176
     1
 72
     2
176
     1
 73
     3
176
     1
 90
        0
176
     1
 40
-0.6
176
     1
 41
-30.0
176
     1
 62
     5
 63
     8
421
  8421504
176
     1
 74
     1
176
     1
 91
        4
176
     1
 64
     7
176
     1
 65
   257
176
     1
 75
     1
176
     1
175
     1
176
     1
 42
1.0
176
     1
 92
        8
176
     1
 66
     8
424
  8421504
176
     1
 43
1.0
176
     1
 76
     1
176
     1
 77
     6
176
     1
 78
     2
176
     1
 67
     7
176
     1
 79
     5
176
     1
170
     0
176
     1
171
     0
176
     1
290
     0
176
     1
 93
        1
176
     1
 44
0.0
176
     1
173
     0
176
     1
  0
VISUALSTYLE
  5
34
102
{ACAD_REACTORS
330
2A
102
}
330
2A
100
AcDbVisualStyle
  2
Conceptual
 70
     9
177
     2
291
     0
 71
     3
176
     1
 72
     2
176
     1
 73
     0
176
     1
 90
        0
176
     1
 40
-0.6
176
     1
 41
-30.0
176
     1
 62
     5
 63
     7
421
 16777215
176
     1
 74
     2
176
     1
 91
        2
176
     1
 64
     7
176
     1
 65
   257
176
     1
 75
     1
176
     1
175
     1
176
     1
 42
40.0
176
     1
 92
        8
176
     1
 66
     7
176
     1
 43
1.0
176
     1
 76
     1
176
     1
 77
     6
176
     1
 78
     2
176
     1
 67
     7
176
     1
 79
     3
176
     1
170
     0
176
     1
171
     0
176
     1
290
     0
176
     1
 93
        1
176
     1
 44
0.0
176
     1
173
     0
176
     1
  0
VISUALSTYLE
  5
35
102
{ACAD_REACTORS
330
2A
102
}
330
2A
100
AcDbVisualStyle
  2
Dim
 70
    11
177
     2
291
     1
 71
     2
176
     1
 72
     2
176
     1
 73
     0
176
     1
 90
        0
176
     1
 40
-0.6
176
     1
 41
-30.0
176
     1
 62
     5
 63
     7
421
 16777215
176
     1
 74
     1
176
     1
 91
        4
176
     1
 64
     7
176
     1
 65
   257
176
     1
 75
     1
176
     1
175
     1
176
     1
 42
1.0
176
     1
 92
        8
176
     1
 66
     7
176
     1
 43
1.0
176
     1
 76
     1
176
     1
 77
     6
176
     1
 78
     2
176
     1
 67
     7
176
     1
 79
     5
176
     1
170
     0
176
     1
171
     0
176
     1
290
     0
176
     1
 93
        1
176
     1
 44
-50.0
176
     1
173
     0
176
     1
  0
VISUALSTYLE
  5
39
102
{ACAD_REACTORS
330
2A
102
}
330
2A
100
AcDbVisualStyle
  2
Facepattern
 70
    15
177
     2
291
     1
 71
     2
176
     1
 72
     2
176
     1
 73
     0
176
     1
 90
        0
176
     1
 40
-0.6
176
     1
 41
-30.0
176
     1
 62
     5
 63
     7
421
 16777215
176
     1
 74
     1
176
     1
 91
        4
176
     1
 64
     7
176
     1
 65
   257
176
     1
 75
     1
176
     1
175
     1
176
     1
 42
1.0
176
     1
 92
        8
176
     1
 66
     7
176
     1
 43
1.0
176
     1
 76
     1
176
     1
 77
     6
176
     1
 78
     2
176
     1
 67
     7
176
     1
 79
     5
176
     1
170
     0
176
     1
171
     0
176
     1
290
     0
176
     1
 93
        1
176
     1
 44
0.0
176
     1
173
     0
176
     1
  0
VISUALSTYLE
  5
2B
102
{ACAD_REACTORS
330
2A
102
}
330
2A
100
AcDbVisualStyle
  2
Flat
 70
     0
177
     2
291
     1
 71
     2
176
     1
 72
     1
176
     1
 73
     1
176
     1
 90
        2
176
     1
 40
-0.6
176
     1
 41
30.0
176
     1
 62
     5
 63
     7
421
 16777215
176
     1
 74
     0
176
     1
 91
        4
176
     1
 64
     7
176
     1
 65
   257
176
     1
 75
     1
176
     1
175
     1
176
     1
 42
1.0
176
     1
 92
        8
176
     1
 66
     7
176
     1
 43
1.0
176
     1
 76
     1
176
     1
 77
     6
176
     1
 78
     2
176
     1
 67
     7
176
     1
 79
     5
176
     1
170
     0
176
     1
171
     0
176
     1
290
     0
176
     1
 93
       13
176
     1
 44
0.0
176
     1
173
     0
176
     1
  0
VISUALSTYLE
  5
2C
102
{ACAD_REACTORS
330
2A
102
}
330
2A
100
AcDbVisualStyle
  2
FlatWithEdges
 70
     1
177
     2
291
     1
 71
     2
176
     1
 72
     1
176
     1
 73
     1
176
     1
 90
        2
176
     1
 40
-0.6
176
     1
 41
30.0
176
     1
 62
     5
 63
     7
421
 16777215
176
     1
 74
     1
176
     1
 91
        4
176
     1
 64
     7
176
     1
 65
   257
176
     1
 75
     1
176
     1
175
     1
176
     1
 42
1.0
176
     1
 92
        0
176
     1
 66
   257
176
     1
 43
1.0
176
     1
 76
     1
176
     1
 77
     6
176
     1
 78
     2
176
     1
 67
     7
176
     1
 79
     5
176
     1
170
     0
176
     1
171
     0
176
     1
290
     0
176
     1
 93
       13
176
     1
 44
0.0
176
     1
173
     0
176
     1
  0
VISUALSTYLE
  5
2D
102
{ACAD_REACTORS
330
2A
102
}
330
2A
100
AcDbVisualStyle
  2
Gouraud
 70
     2
177
     2
291
     1
 71
     2
176
     1
 72
     2
176
     1
 73
     1
176
     1
 90
        2
176
     1
 40
-0.6
176
     1
 41
30.0
176
     1
 62
     5
 63
     7
421
 16777215
176
     1
 74
     0
176
     1
 91
        4
176
     1
 64
     7
176
     1
 65
   257
176
     1
 75
     1
176
     1
175
     1
176
     1
 42
1.0
176
     1
 92
        0
176
     1
 66
     7
176
     1
 43
1.0
176
     1
 76
     1
176
     1
 77
     6
176
     1
 78
     2
176
     1
 67
     7
176
     1
 79
     5
176
     1
170
     0
176
     1
171
     0
176
     1
290
     0
176
     1
 93
       13
176
     1
 44
0.0
176
     1
173
     0
176
     1
  0
VISUALSTYLE
  5
2E
102
{ACAD_REACTORS
330
2A
102
}
330
2A
100
AcDbVisualStyle
  2
GouraudWithEdges
 70
     3
177
     2
291
     1
 71
     2
176
     1
 72
     2
176
     1
 73
     1
176
     1
 90
        2
176
     1
 40
-0.6
176
     1
 41
30.0
176
     1
 62
     5
 63
     7
421
 16777215
176
     1
 74
     1
176
     1
 91
        4
176
     1
 64
     7
176
     1
 65
   257
176
     1
 75
     1
176
     1
175
     1
176
     1
 42
1.0
176
     1
 92
        0
176
     1
 66
   257
176
     1
 43
1.0
176
     1
 76
     1
176
     1
 77
     6
176
     1
 78
     2
176
     1
 67
     7
176
     1
 79
     5
176
     1
170
     0
176
     1
171
     0
176
     1
290
     0
176
     1
 93
       13
176
     1
 44
0.0
176
     1
173
     0
176
     1
  0
VISUALSTYLE
  5
38
102
{ACAD_REACTORS
330
2A
102
}
330
2A
100
AcDbVisualStyle
  2
Linepattern
 70
    14
177
     2
291
     1
 71
     2
176
     1
 72
     2
176
     1
 73
     0
176
     1
 90
        0
176
     1
 40
-0.6
176
     1
 41
-30.0
176
     1
 62
     5
 63
     7
421
 16777215
176
     1
 74
     1
176
     1
 91
        4
176
     1
 64
     7
176
     1
 65
   257
176
     1
 75
     7
176
     1
175
     7
176
     1
 42
1.0
176
     1
 92
        8
176
     1
 66
     7
176
     1
 43
1.0
176
     1
 76
     1
176
     1
 77
     6
176
     1
 78
     2
176
     1
 67
     7
176
     1
 79
     5
176
     1
170
     0
176
     1
171
     0
176
     1
290
     0
176
     1
 93
        1
176
     1
 44
0.0
176
     1
173
     0
176
     1
  0
VISUALSTYLE
  5
33
102
{ACAD_REACTORS
330
2A
102
}
330
2A
100
AcDbVisualStyle
  2
Realistic
 70
     8
177
     2
291
     0
 71
     2
176
     1
 72
     2
176
     1
 73
     0
176
     1
 90
        0
176
     1
 40
-0.6
176
     1
 41
-30.0
176
     1
 62
     5
 63
     7
421
 16777215
176
     1
 74
     1
176
     1
 91
        0
176
     1
 64
     7
176
     1
 65
   257
176
     1
 75
     1
176
     1
175
     1
176
     1
 42
1.0
176
     1
 92
        8
176
     1
 66
     8
424
  7895160
176
     1
 43
1.0
176
     1
 76
     1
176
     1
 77
     6
176
     1
 78
     2
176
     1
 67
     7
176
     1
 79
     5
176
     1
170
     0
176
     1
171
     0
176
     1
290
     0
176
     1
 93
       13
176
     1
 44
0.0
176
     1
173
     0
176
     1
  0
VISUALSTYLE
  5
37
102
{ACAD_REACTORS
330
2A
102
}
330
2A
100
AcDbVisualStyle
  2
Thicken
 70
    13
177
     2
291
     1
 71
     2
176
     1
 72
     2
176
     1
 73
     0
176
     1
 90
        0
176
     1
 40
-0.6
176
     1
 41
-30.0
176
     1
 62
     5
 63
     7
421
 16777215
176
     1
 74
     1
176
     1
 91
        4
176
     1
 64
     7
176
     1
 65
   257
176
     1
 75
     1
176
     1
175
     1
176
     1
 42
1.0
176
     1
 92
       12
176
     1
 66
     7
176
     1
 43
1.0
176
     1
 76
     1
176
     1
 77
     6
176
     1
 78
     2
176
     1
 67
     7
176
     1
 79
     5
176
     1
170
     0
176
     1
171
     0
176
     1
290
     0
176
     1
 93
        1
176
     1
 44
0.0
176
     1
173
     0
176
     1
  0
ENDSEC
  0
EOF
